<?xml version="1.0" encoding="utf-8"?>
<!-- Generator: Adobe Illustrator 27.5.0, SVG Export Plug-In . SVG Version: 6.00 Build 0)  -->
<svg xmlns="http://www.w3.org/2000/svg" xmlns:xlink="http://www.w3.org/1999/xlink" version="1.1" id="Layer_1" x="0px" y="0px" viewBox="-24.343 -91.966 83.736 73.249" style="enable-;background-color:transparent;" xml:space="preserve">
<rect x="-24.343" y="-91.966" style="fill:none;" width="83.736" height="73.249"/>
<g>
	<g style="opacity:0.74;">
		<g>
			<defs>
				<path id="SVGID_1_" d="M16.309-41.35c14.341,0.272,25.202,2.491,24.115,4.938c-1.037,2.46-13.676,4.219-27.976,3.947      c-14.557-0.279-25.452-2.493-24.319-4.948C-10.83-39.868,1.823-41.629,16.309-41.35z"/>
			</defs>
			<clipPath id="SVGID_00000101787412836249330600000003786870193360362932_">
				<use xlink:href="#SVGID_1_" style="overflow:visible;"/>
			</clipPath>
			
				<rect x="-13.004" y="-41.629" style="clip-path:url(#SVGID_00000101787412836249330600000003786870193360362932_);fill:none;" width="54.515" height="9.436"/>
			<path style="clip-path:url(#SVGID_00000101787412836249330600000003786870193360362932_);fill:none;" d="M37.895-36.776     c-0.027,1.717-10.123,2.906-22.55,2.657c-12.427-0.249-22.478-1.843-22.45-3.56c0.027-1.717,10.123-2.906,22.55-2.657     C27.872-40.086,37.922-38.493,37.895-36.776z"/>
			<path style="clip-path:url(#SVGID_00000101787412836249330600000003786870193360362932_);fill:none;" d="M37.798-36.778     c-0.028,1.709-10.08,2.894-22.453,2.646C2.973-34.38-7.035-35.966-7.008-37.676c0.027-1.709,10.08-2.894,22.453-2.646     C27.818-40.074,37.826-38.488,37.798-36.778z"/>
			<path style="clip-path:url(#SVGID_00000101787412836249330600000003786870193360362932_);fill:none;" d="M37.701-36.78     c-0.027,1.702-10.036,2.882-22.355,2.635C3.026-34.392-6.938-35.972-6.911-37.674c0.027-1.702,10.036-2.882,22.355-2.635     C27.763-40.062,37.728-38.482,37.701-36.78z"/>
			<path style="clip-path:url(#SVGID_00000101787412836249330600000003786870193360362932_);fill:none;" d="M37.603-36.782     c-0.027,1.694-9.992,2.869-22.257,2.623C3.081-34.405-6.84-35.978-6.813-37.672c0.027-1.694,9.992-2.869,22.257-2.623     C27.709-40.049,37.63-38.476,37.603-36.782z"/>
			<path style="clip-path:url(#SVGID_00000101787412836249330600000003786870193360362932_);fill:none;" d="M37.506-36.784     c-0.027,1.688-9.949,2.856-22.161,2.611C3.134-34.417-6.743-35.983-6.716-37.67c0.027-1.688,9.948-2.856,22.16-2.611     C27.656-40.037,37.533-38.471,37.506-36.784z"/>
			<path style="clip-path:url(#SVGID_00000101787412836249330600000003786870193360362932_);fill:none;" d="M37.409-36.786     c-0.027,1.68-9.905,2.844-22.062,2.6C3.188-34.429-6.646-35.989-6.619-37.668c0.027-1.68,9.905-2.844,22.063-2.6     C27.602-40.025,37.436-38.465,37.409-36.786z"/>
			<path style="clip-path:url(#SVGID_00000101787412836249330600000003786870193360362932_);fill:none;" d="M37.311-36.788     c-0.026,1.672-9.86,2.831-21.965,2.589C3.242-34.442-6.548-35.994-6.521-37.666c0.027-1.672,9.861-2.831,21.965-2.589     C27.547-40.012,37.338-38.46,37.311-36.788z"/>
			<path style="clip-path:url(#SVGID_00000101787412836249330600000003786870193360362932_);fill:none;" d="M37.214-36.79     c-0.027,1.665-9.817,2.818-21.868,2.577c-12.05-0.242-21.797-1.787-21.771-3.452c0.027-1.665,9.817-2.818,21.867-2.577     C27.494-39.999,37.241-38.455,37.214-36.79z"/>
			<path style="clip-path:url(#SVGID_00000101787412836249330600000003786870193360362932_);fill:#FEFEFE;" d="M37.117-36.791     c-0.026,1.657-9.773,2.806-21.77,2.565c-11.997-0.24-21.7-1.779-21.673-3.436c0.027-1.657,9.773-2.806,21.77-2.566     C27.44-39.988,37.143-38.449,37.117-36.791z"/>
			<path style="clip-path:url(#SVGID_00000101787412836249330600000003786870193360362932_);fill:#FEFEFE;" d="M37.019-36.793     C36.993-35.143,27.29-34,15.347-34.24C3.404-34.479-6.256-36.01-6.23-37.661c0.027-1.65,9.73-2.793,21.672-2.554     C27.386-39.975,37.045-38.444,37.019-36.793z"/>
			<path style="clip-path:url(#SVGID_00000101787412836249330600000003786870193360362932_);fill:#FEFEFE;" d="M36.922-36.795     c-0.026,1.643-9.687,2.781-21.575,2.543C3.458-34.492-6.158-36.016-6.132-37.659c0.026-1.643,9.686-2.781,21.575-2.543     C27.332-39.962,36.949-38.438,36.922-36.795z"/>
			<path style="clip-path:url(#SVGID_00000101787412836249330600000003786870193360362932_);fill:#FEFEFE;" d="M36.825-36.797     c-0.026,1.635-9.642,2.769-21.477,2.531C3.512-34.503-6.061-36.022-6.035-37.657c0.026-1.635,9.642-2.768,21.477-2.531     C27.278-39.951,36.851-38.432,36.825-36.797z"/>
			<path style="clip-path:url(#SVGID_00000101787412836249330600000003786870193360362932_);fill:#FEFEFE;" d="M36.727-36.799     c-0.025,1.628-9.598,2.756-21.379,2.52C3.566-34.516-5.963-36.027-5.938-37.655c0.026-1.628,9.598-2.756,21.38-2.52     C27.224-39.938,36.753-38.427,36.727-36.799z"/>
			<path style="clip-path:url(#SVGID_00000101787412836249330600000003786870193360362932_);fill:#FEFEFE;" d="M36.63-36.801     c-0.026,1.62-9.555,2.743-21.283,2.508C3.62-34.529-5.866-36.033-5.84-37.653c0.026-1.62,9.554-2.743,21.282-2.508     C27.17-39.925,36.656-38.421,36.63-36.801z"/>
			<path style="clip-path:url(#SVGID_00000101787412836249330600000003786870193360362932_);fill:#FEFEFE;" d="M36.533-36.803     c-0.026,1.613-9.511,2.731-21.185,2.496c-11.674-0.233-21.117-1.73-21.091-3.344c0.026-1.613,9.511-2.73,21.184-2.496     C27.116-39.914,36.559-38.416,36.533-36.803z"/>
			<path style="clip-path:url(#SVGID_00000101787412836249330600000003786870193360362932_);fill:#FDFDFD;" d="M36.435-36.805     c-0.025,1.605-9.467,2.718-21.087,2.485c-11.62-0.233-21.02-1.724-20.994-3.329c0.026-1.605,9.467-2.718,21.087-2.485     C27.062-39.901,36.461-38.411,36.435-36.805z"/>
			<path style="clip-path:url(#SVGID_00000101787412836249330600000003786870193360362932_);fill:#FDFDFD;" d="M36.338-36.807     c-0.026,1.598-9.423,2.705-20.99,2.474C3.782-34.566-5.574-36.049-5.548-37.647c0.025-1.598,9.423-2.705,20.989-2.474     C27.008-39.888,36.364-38.405,36.338-36.807z"/>
			<path style="clip-path:url(#SVGID_00000101787412836249330600000003786870193360362932_);fill:#FDFDFD;" d="M36.241-36.809     c-0.025,1.591-9.379,2.693-20.892,2.462c-11.513-0.23-20.825-1.707-20.799-3.298c0.025-1.591,9.379-2.693,20.892-2.462     C26.955-39.876,36.266-38.4,36.241-36.809z"/>
			<path style="clip-path:url(#SVGID_00000101787412836249330600000003786870193360362932_);fill:#FDFDFD;" d="M36.143-36.811     c-0.025,1.583-9.335,2.681-20.794,2.45C3.89-34.59-5.379-36.06-5.354-37.643c0.025-1.583,9.335-2.681,20.794-2.45     C26.9-39.864,36.168-38.394,36.143-36.811z"/>
			<path style="clip-path:url(#SVGID_00000101787412836249330600000003786870193360362932_);fill:#FCFCFC;" d="M36.046-36.813     c-0.025,1.576-9.292,2.668-20.697,2.439c-11.405-0.23-20.63-1.691-20.605-3.268c0.025-1.576,9.292-2.668,20.697-2.439     C26.846-39.851,36.072-38.389,36.046-36.813z"/>
			<path style="clip-path:url(#SVGID_00000101787412836249330600000003786870193360362932_);fill:#FCFCFC;" d="M35.949-36.815     c-0.025,1.568-9.248,2.655-20.599,2.428C3.998-34.615-5.184-36.071-5.159-37.639c0.025-1.568,9.248-2.655,20.599-2.428     C26.792-39.839,35.974-38.383,35.949-36.815z"/>
			<path style="clip-path:url(#SVGID_00000101787412836249330600000003786870193360362932_);fill:#FCFCFC;" d="M35.851-36.817     c-0.024,1.561-9.204,2.643-20.501,2.416C4.052-34.627-5.086-36.077-5.062-37.637c0.025-1.561,9.204-2.643,20.502-2.416     C26.738-39.827,35.876-38.377,35.851-36.817z"/>
			<path style="clip-path:url(#SVGID_00000101787412836249330600000003786870193360362932_);fill:#FCFCFC;" d="M35.754-36.819     c-0.025,1.554-9.16,2.63-20.405,2.404C4.106-34.64-4.989-36.082-4.964-37.635c0.025-1.554,9.161-2.63,20.405-2.404     C26.684-39.814,35.779-38.373,35.754-36.819z"/>
			<path style="clip-path:url(#SVGID_00000101787412836249330600000003786870193360362932_);fill:#FBFBFB;" d="M35.657-36.821     c-0.024,1.546-9.116,2.617-20.307,2.393c-11.19-0.225-20.242-1.66-20.217-3.206c0.025-1.546,9.116-2.617,20.307-2.394     C26.63-39.802,35.682-38.367,35.657-36.821z"/>
			<path style="clip-path:url(#SVGID_00000101787412836249330600000003786870193360362932_);fill:#FBFBFB;" d="M35.559-36.823     c-0.024,1.539-9.072,2.604-20.209,2.382c-11.136-0.224-20.145-1.651-20.12-3.19c0.025-1.539,9.073-2.604,20.209-2.382     C26.577-39.79,35.584-38.362,35.559-36.823z"/>
			<path style="clip-path:url(#SVGID_00000101787412836249330600000003786870193360362932_);fill:#FBFBFB;" d="M35.462-36.825     c-0.024,1.531-9.029,2.593-20.112,2.37C4.268-34.676-4.697-36.098-4.672-37.629c0.025-1.531,9.029-2.593,20.112-2.37     C26.522-39.778,35.487-38.356,35.462-36.825z"/>
			<path style="clip-path:url(#SVGID_00000101787412836249330600000003786870193360362932_);fill:#FBFBFB;" d="M35.365-36.827     c-0.024,1.523-8.985,2.58-20.014,2.358C4.322-34.689-4.6-36.104-4.575-37.627c0.024-1.523,8.985-2.58,20.014-2.358     C26.468-39.765,35.389-38.35,35.365-36.827z"/>
			<path style="clip-path:url(#SVGID_00000101787412836249330600000003786870193360362932_);fill:#FAFAFA;" d="M35.268-36.829     c-0.024,1.517-8.941,2.567-19.917,2.347c-10.976-0.22-19.853-1.627-19.829-3.143c0.024-1.517,8.941-2.567,19.916-2.347     C26.415-39.752,35.291-38.345,35.268-36.829z"/>
			<path style="clip-path:url(#SVGID_00000101787412836249330600000003786870193360362932_);fill:#FAFAFA;" d="M35.17-36.831     c-0.024,1.509-8.897,2.555-19.819,2.336C4.43-34.713-4.404-36.115-4.38-37.624c0.024-1.509,8.898-2.555,19.819-2.336     C26.361-39.741,35.195-38.339,35.17-36.831z"/>
			<path style="clip-path:url(#SVGID_00000101787412836249330600000003786870193360362932_);fill:#FAFAFA;" d="M35.073-36.833     c-0.024,1.501-8.853,2.542-19.722,2.324C4.483-34.726-4.307-36.12-4.283-37.622c0.024-1.501,8.854-2.542,19.722-2.324     C26.306-39.728,35.097-38.334,35.073-36.833z"/>
			<path style="clip-path:url(#SVGID_00000101787412836249330600000003786870193360362932_);fill:#F9F9F9;" d="M34.976-36.834     c-0.024,1.494-8.81,2.529-19.625,2.313C4.538-34.739-4.209-36.125-4.186-37.62c0.024-1.494,8.81-2.529,19.624-2.313     S34.999-38.329,34.976-36.834z"/>
			<path style="clip-path:url(#SVGID_00000101787412836249330600000003786870193360362932_);fill:#F9F9F9;" d="M34.878-36.836     c-0.025,1.486-8.767,2.517-19.527,2.301c-10.76-0.215-19.464-1.596-19.44-3.082c0.024-1.486,8.766-2.517,19.527-2.301     C26.199-39.704,34.902-38.323,34.878-36.836z"/>
			<path style="clip-path:url(#SVGID_00000101787412836249330600000003786870193360362932_);fill:#F8F8F8;" d="M34.781-36.838     c-0.023,1.479-8.723,2.504-19.429,2.29C4.645-34.763-4.015-36.136-3.991-37.616c0.024-1.479,8.723-2.504,19.429-2.29     C26.145-39.691,34.805-38.318,34.781-36.838z"/>
			<path style="clip-path:url(#SVGID_00000101787412836249330600000003786870193360362932_);fill:#F8F8F8;" d="M34.684-36.84     c-0.024,1.472-8.679,2.492-19.332,2.278c-10.653-0.214-19.269-1.58-19.246-3.052c0.023-1.472,8.679-2.492,19.331-2.278     C26.09-39.678,34.708-38.312,34.684-36.84z"/>
			<path style="clip-path:url(#SVGID_00000101787412836249330600000003786870193360362932_);fill:#F8F8F8;" d="M34.586-36.842     c-0.024,1.464-8.635,2.479-19.234,2.267C4.753-34.788-3.82-36.147-3.796-37.612c0.023-1.464,8.635-2.479,19.234-2.267     C26.037-39.666,34.61-38.307,34.586-36.842z"/>
			<path style="clip-path:url(#SVGID_00000101787412836249330600000003786870193360362932_);fill:#F7F7F7;" d="M34.489-36.844     c-0.023,1.457-8.591,2.467-19.136,2.255C4.807-34.8-3.723-36.153-3.699-37.61c0.023-1.457,8.591-2.467,19.137-2.255     C25.983-39.654,34.512-38.301,34.489-36.844z"/>
			<path style="clip-path:url(#SVGID_00000101787412836249330600000003786870193360362932_);fill:#F7F7F7;" d="M34.392-36.846     c-0.023,1.449-8.548,2.454-19.039,2.244C4.861-34.813-3.625-36.159-3.602-37.608c0.023-1.449,8.547-2.454,19.038-2.244     C25.929-39.641,34.415-38.295,34.392-36.846z"/>
			<path style="clip-path:url(#SVGID_00000101787412836249330600000003786870193360362932_);fill:#F6F6F6;" d="M34.294-36.848     c-0.024,1.442-8.504,2.441-18.941,2.232c-10.438-0.209-18.88-1.548-18.858-2.99c0.024-1.442,8.503-2.441,18.941-2.232     C25.874-39.629,34.318-38.291,34.294-36.848z"/>
			<path style="clip-path:url(#SVGID_00000101787412836249330600000003786870193360362932_);fill:#F6F6F6;" d="M34.197-36.85     c-0.022,1.435-8.459,2.429-18.844,2.221c-10.384-0.208-18.783-1.54-18.76-2.975c0.023-1.435,8.46-2.429,18.844-2.221     C25.821-39.617,34.22-38.285,34.197-36.85z"/>
			<path style="clip-path:url(#SVGID_00000101787412836249330600000003786870193360362932_);fill:#F6F6F6;" d="M34.1-36.852     c-0.023,1.427-8.416,2.416-18.747,2.209C5.023-34.85-3.333-36.174-3.31-37.602c0.023-1.427,8.416-2.416,18.746-2.209     C25.767-39.604,34.123-38.28,34.1-36.852z"/>
			<path style="clip-path:url(#SVGID_00000101787412836249330600000003786870193360362932_);fill:#F5F5F5;" d="M34.002-36.854     c-0.023,1.42-8.372,2.403-18.649,2.197C5.077-34.862-3.235-36.18-3.212-37.6c0.023-1.42,8.372-2.403,18.649-2.197     C25.713-39.592,34.025-38.274,34.002-36.854z"/>
			<path style="clip-path:url(#SVGID_00000101787412836249330600000003786870193360362932_);fill:#F5F5F5;" d="M33.905-36.856     c-0.022,1.412-8.328,2.392-18.551,2.187C5.131-34.874-3.138-36.186-3.115-37.598c0.023-1.412,8.329-2.392,18.551-2.187     C25.659-39.58,33.928-38.268,33.905-36.856z"/>
			<path style="clip-path:url(#SVGID_00000101787412836249330600000003786870193360362932_);fill:#F4F4F4;" d="M33.808-36.858     c-0.022,1.405-8.285,2.379-18.454,2.175C5.185-34.887-3.041-36.191-3.018-37.596c0.022-1.405,8.284-2.379,18.454-2.175     C25.605-39.567,33.831-38.263,33.808-36.858z"/>
			<path style="clip-path:url(#SVGID_00000101787412836249330600000003786870193360362932_);fill:#F4F4F4;" d="M33.71-36.86     c-0.023,1.397-8.241,2.366-18.356,2.163c-10.116-0.202-18.297-1.5-18.275-2.898c0.023-1.397,8.241-2.366,18.356-2.163     C25.551-39.555,33.733-38.257,33.71-36.86z"/>
			<path style="clip-path:url(#SVGID_00000101787412836249330600000003786870193360362932_);fill:#F3F3F3;" d="M33.613-36.862     c-0.021,1.39-8.196,2.354-18.258,2.151c-10.062-0.201-18.2-1.492-18.178-2.882c0.023-1.39,8.197-2.354,18.259-2.151     C25.498-39.542,33.635-38.251,33.613-36.862z"/>
			<path style="clip-path:url(#SVGID_00000101787412836249330600000003786870193360362932_);fill:#F3F3F3;" d="M33.516-36.864     c-0.022,1.383-8.153,2.341-18.161,2.141C5.347-34.924-2.748-36.208-2.726-37.59c0.022-1.383,8.153-2.341,18.161-2.141     C25.443-39.53,33.539-38.247,33.516-36.864z"/>
			<path style="clip-path:url(#SVGID_00000101787412836249330600000003786870193360362932_);fill:#F2F2F2;" d="M33.418-36.866     c-0.023,1.375-8.109,2.328-18.064,2.129C5.401-34.936-2.65-36.213-2.628-37.588c0.022-1.375,8.109-2.328,18.063-2.129     C25.389-39.518,33.441-38.241,33.418-36.866z"/>
			<path style="clip-path:url(#SVGID_00000101787412836249330600000003786870193360362932_);fill:#F2F2F2;" d="M33.321-36.868     c-0.021,1.368-8.065,2.315-17.966,2.117c-9.9-0.198-17.908-1.468-17.886-2.836c0.022-1.368,8.066-2.315,17.966-2.117     C25.335-39.505,33.343-38.236,33.321-36.868z"/>
			<path style="clip-path:url(#SVGID_00000101787412836249330600000003786870193360362932_);fill:#F1F1F1;" d="M33.224-36.87     c-0.022,1.36-8.023,2.303-17.869,2.105c-9.847-0.197-17.811-1.46-17.79-2.82c0.022-1.36,8.022-2.303,17.869-2.105     C25.281-39.493,33.246-38.23,33.224-36.87z"/>
			<path style="clip-path:url(#SVGID_00000101787412836249330600000003786870193360362932_);fill:#F1F1F1;" d="M33.126-36.872     c-0.022,1.352-7.978,2.291-17.771,2.095C5.563-34.973-2.358-36.23-2.336-37.583c0.022-1.353,7.978-2.291,17.771-2.095     C25.227-39.481,33.148-38.224,33.126-36.872z"/>
			<path style="clip-path:url(#SVGID_00000101787412836249330600000003786870193360362932_);fill:#F0F0F0;" d="M33.029-36.874     c-0.021,1.346-7.934,2.278-17.673,2.083c-9.739-0.195-17.617-1.444-17.595-2.79c0.021-1.346,7.934-2.278,17.673-2.083     C25.173-39.468,33.051-38.219,33.029-36.874z"/>
			<path style="clip-path:url(#SVGID_00000101787412836249330600000003786870193360362932_);fill:#F0F0F0;" d="M32.932-36.875     c-0.021,1.338-7.891,2.266-17.576,2.071c-9.685-0.194-17.519-1.437-17.498-2.774c0.021-1.338,7.891-2.266,17.576-2.071     C25.12-39.456,32.954-38.213,32.932-36.875z"/>
			<path style="clip-path:url(#SVGID_00000101787412836249330600000003786870193360362932_);fill:#EFEFEF;" d="M32.834-36.877     c-0.022,1.331-7.847,2.253-17.478,2.06C5.725-35.01-2.066-36.246-2.044-37.577c0.021-1.331,7.847-2.253,17.478-2.06     C25.065-39.444,32.856-38.208,32.834-36.877z"/>
			<path style="clip-path:url(#SVGID_00000101787412836249330600000003786870193360362932_);fill:#EEEEEE;" d="M32.738-36.879     c-0.021,1.323-7.804,2.24-17.381,2.049c-9.578-0.192-17.325-1.421-17.304-2.744c0.021-1.323,7.803-2.24,17.381-2.049     C25.011-39.431,32.758-38.203,32.738-36.879z"/>
			<path style="clip-path:url(#SVGID_00000101787412836249330600000003786870193360362932_);fill:#EEEEEE;" d="M32.64-36.881     c-0.021,1.315-7.759,2.228-17.283,2.037C5.833-35.036-1.871-36.257-1.85-37.573c0.021-1.315,7.759-2.228,17.283-2.037     C24.958-39.418,32.662-38.197,32.64-36.881z"/>
			<path style="clip-path:url(#SVGID_00000101787412836249330600000003786870193360362932_);fill:#EDEDED;" d="M32.542-36.883     c-0.021,1.309-7.715,2.215-17.186,2.025c-9.47-0.189-17.131-1.404-17.109-2.713c0.021-1.309,7.715-2.215,17.185-2.025     C24.904-39.407,32.564-38.192,32.542-36.883z"/>
			<path style="clip-path:url(#SVGID_00000101787412836249330600000003786870193360362932_);fill:#EDEDED;" d="M32.446-36.885     c-0.021,1.301-7.672,2.203-17.089,2.014C5.94-35.06-1.676-36.268-1.655-37.569c0.021-1.301,7.671-2.203,17.088-2.014     C24.849-39.394,32.466-38.186,32.446-36.885z"/>
			<path style="clip-path:url(#SVGID_00000101787412836249330600000003786870193360362932_);fill:#ECECEC;" d="M32.348-36.887     c-0.021,1.294-7.628,2.19-16.991,2.002c-9.363-0.188-16.936-1.388-16.916-2.682c0.021-1.294,7.628-2.19,16.991-2.002     C24.795-39.381,32.369-38.181,32.348-36.887z"/>
			<path style="clip-path:url(#SVGID_00000101787412836249330600000003786870193360362932_);fill:#EBEBEB;" d="M32.25-36.889     c-0.021,1.286-7.584,2.178-16.893,1.991c-9.309-0.187-16.839-1.381-16.818-2.667c0.021-1.286,7.584-2.178,16.894-1.991     C24.742-39.37,32.271-38.175,32.25-36.889z"/>
			<path style="clip-path:url(#SVGID_00000101787412836249330600000003786870193360362932_);fill:#EBEBEB;" d="M32.154-36.891     c-0.021,1.278-7.541,2.165-16.796,1.979c-9.255-0.186-16.742-1.373-16.721-2.651c0.02-1.278,7.54-2.165,16.795-1.979     C24.688-39.357,32.174-38.169,32.154-36.891z"/>
			<path style="clip-path:url(#SVGID_00000101787412836249330600000003786870193360362932_);fill:#EAEAEA;" d="M32.056-36.893     c-0.021,1.272-7.496,2.152-16.698,1.968C6.156-35.11-1.287-36.29-1.266-37.561c0.02-1.271,7.497-2.152,16.698-1.968     C24.633-39.344,32.077-38.165,32.056-36.893z"/>
			<path style="clip-path:url(#SVGID_00000101787412836249330600000003786870193360362932_);fill:#EAEAEA;" d="M31.958-36.895     c-0.021,1.264-7.452,2.14-16.6,1.956c-9.148-0.183-16.547-1.356-16.527-2.62c0.021-1.264,7.453-2.14,16.601-1.956     C24.58-39.333,31.979-38.159,31.958-36.895z"/>
			<path style="clip-path:url(#SVGID_00000101787412836249330600000003786870193360362932_);fill:#E9E9E9;" d="M31.862-36.897     c-0.021,1.257-7.409,2.127-16.503,1.945c-9.094-0.183-16.45-1.349-16.43-2.605c0.02-1.257,7.409-2.127,16.503-1.945     C24.526-39.32,31.881-38.154,31.862-36.897z"/>
			<path style="clip-path:url(#SVGID_00000101787412836249330600000003786870193360362932_);fill:#E8E8E8;" d="M31.764-36.899     c-0.021,1.249-7.365,2.114-16.405,1.934c-9.04-0.182-16.353-1.341-16.333-2.59c0.02-1.249,7.365-2.114,16.405-1.934     C24.472-39.307,31.785-38.148,31.764-36.899z"/>
			<path style="clip-path:url(#SVGID_00000101787412836249330600000003786870193360362932_);fill:#E8E8E8;" d="M31.666-36.901     c-0.02,1.241-7.321,2.103-16.308,1.922c-8.987-0.18-16.256-1.333-16.236-2.574c0.02-1.241,7.321-2.102,16.308-1.922     C24.417-39.295,31.687-38.142,31.666-36.901z"/>
			<path style="clip-path:url(#SVGID_00000101787412836249330600000003786870193360362932_);fill:#E7E7E7;" d="M31.57-36.903     c-0.021,1.234-7.277,2.09-16.211,1.91c-8.933-0.179-16.158-1.324-16.138-2.559c0.02-1.234,7.277-2.09,16.21-1.91     C24.364-39.283,31.589-38.137,31.57-36.903z"/>
			<path style="clip-path:url(#SVGID_00000101787412836249330600000003786870193360362932_);fill:#E6E6E6;" d="M31.472-36.905     c-0.019,1.226-7.233,2.077-16.113,1.899C6.48-35.184-0.702-36.323-0.682-37.549c0.02-1.227,7.234-2.077,16.113-1.899     C24.31-39.27,31.492-38.131,31.472-36.905z"/>
			<path style="clip-path:url(#SVGID_00000101787412836249330600000003786870193360362932_);fill:#E6E6E6;" d="M31.374-36.907     c-0.02,1.22-7.189,2.065-16.015,1.888c-8.825-0.177-15.964-1.309-15.944-2.528c0.02-1.22,7.19-2.064,16.016-1.888     C24.256-39.258,31.394-38.126,31.374-36.907z"/>
			<path style="clip-path:url(#SVGID_00000101787412836249330600000003786870193360362932_);fill:#E5E5E5;" d="M31.278-36.909     c-0.02,1.212-7.146,2.052-15.918,1.876c-8.772-0.176-15.867-1.301-15.847-2.513c0.019-1.212,7.146-2.052,15.917-1.876     S31.297-38.121,31.278-36.909z"/>
			<path style="clip-path:url(#SVGID_00000101787412836249330600000003786870193360362932_);fill:#E4E4E4;" d="M31.18-36.911     c-0.019,1.204-7.102,2.039-15.82,1.864S-0.41-36.339-0.39-37.543c0.019-1.204,7.102-2.039,15.82-1.864     C24.148-39.233,31.2-38.115,31.18-36.911z"/>
			<path style="clip-path:url(#SVGID_00000101787412836249330600000003786870193360362932_);fill:#E3E3E3;" d="M31.083-36.913     c-0.019,1.197-7.059,2.026-15.722,1.852c-8.665-0.173-15.672-1.284-15.653-2.481c0.019-1.197,7.059-2.026,15.723-1.853     C24.094-39.221,31.102-38.11,31.083-36.913z"/>
			<path style="clip-path:url(#SVGID_00000101787412836249330600000003786870193360362932_);fill:#E3E3E3;" d="M30.986-36.915     c-0.02,1.189-7.015,2.014-15.625,1.842C6.75-35.246-0.215-36.35-0.196-37.54c0.02-1.189,7.015-2.014,15.625-1.842     C24.041-39.208,31.004-38.104,30.986-36.915z"/>
			<path style="clip-path:url(#SVGID_00000101787412836249330600000003786870193360362932_);fill:#E2E2E2;" d="M30.888-36.916     c-0.018,1.183-6.971,2.002-15.527,1.83c-8.557-0.172-15.478-1.268-15.459-2.451c0.019-1.183,6.971-2.002,15.527-1.83     C23.986-39.196,30.908-38.099,30.888-36.916z"/>
			<path style="clip-path:url(#SVGID_00000101787412836249330600000003786870193360362932_);fill:#E1E1E1;" d="M30.791-36.918     c-0.019,1.175-6.927,1.989-15.43,1.818C6.858-35.27-0.02-36.361-0.001-37.536c0.019-1.175,6.927-1.989,15.43-1.818     C23.932-39.184,30.81-38.093,30.791-36.918z"/>
			<path style="clip-path:url(#SVGID_00000101787412836249330600000003786870193360362932_);fill:#E0E0E0;" d="M30.694-36.92     c-0.019,1.167-6.884,1.977-15.333,1.807c-8.449-0.169-15.283-1.253-15.265-2.42c0.019-1.167,6.884-1.977,15.333-1.807     C23.878-39.171,30.712-38.087,30.694-36.92z"/>
			<path style="clip-path:url(#SVGID_00000101787412836249330600000003786870193360362932_);fill:#E0E0E0;" d="M30.596-36.922     c-0.018,1.16-6.84,1.964-15.235,1.796c-8.396-0.169-15.186-1.245-15.167-2.405c0.019-1.16,6.839-1.964,15.235-1.796     C23.825-39.159,30.615-38.083,30.596-36.922z"/>
			<path style="clip-path:url(#SVGID_00000101787412836249330600000003786870193360362932_);fill:#DFDFDF;" d="M30.499-36.924     c-0.018,1.152-6.795,1.951-15.137,1.784c-8.342-0.167-15.089-1.237-15.07-2.39c0.019-1.152,6.796-1.951,15.138-1.784     C23.77-39.147,30.517-38.077,30.499-36.924z"/>
			<path style="clip-path:url(#SVGID_00000101787412836249330600000003786870193360362932_);fill:#DEDEDE;" d="M30.402-36.926     c-0.019,1.146-6.752,1.938-15.04,1.772C7.074-35.32,0.37-36.383,0.388-37.528c0.019-1.146,6.752-1.938,15.04-1.772     C23.716-39.134,30.42-38.071,30.402-36.926z"/>
			<path style="clip-path:url(#SVGID_00000101787412836249330600000003786870193360362932_);fill:#DDDDDD;" d="M30.304-36.928     c-0.018,1.138-6.708,1.926-14.942,1.761c-8.234-0.165-14.895-1.221-14.876-2.358c0.018-1.138,6.708-1.926,14.942-1.761     C23.663-39.122,30.323-38.066,30.304-36.928z"/>
			<path style="clip-path:url(#SVGID_00000101787412836249330600000003786870193360362932_);fill:#DDDDDD;" d="M30.208-36.93     c-0.019,1.13-6.665,1.913-14.845,1.75c-8.181-0.164-14.797-1.214-14.779-2.344c0.018-1.13,6.665-1.913,14.845-1.75     C23.608-39.11,30.225-38.06,30.208-36.93z"/>
			<path style="clip-path:url(#SVGID_00000101787412836249330600000003786870193360362932_);fill:#DCDCDC;" d="M30.11-36.932     c-0.019,1.123-6.621,1.901-14.748,1.738c-8.126-0.163-14.7-1.205-14.682-2.328c0.018-1.123,6.621-1.901,14.748-1.738     C23.554-39.097,30.127-38.055,30.11-36.932z"/>
			<path style="clip-path:url(#SVGID_00000101787412836249330600000003786870193360362932_);fill:#DBDBDB;" d="M30.012-36.934     c-0.017,1.115-6.577,1.889-14.649,1.727C7.29-35.37,0.76-36.405,0.778-37.52c0.017-1.115,6.577-1.889,14.649-1.726     C23.5-39.084,30.031-38.049,30.012-36.934z"/>
			<path style="clip-path:url(#SVGID_00000101787412836249330600000003786870193360362932_);fill:#DADADA;" d="M29.916-36.936     c-0.019,1.108-6.533,1.876-14.553,1.715c-8.019-0.16-14.506-1.189-14.488-2.297c0.018-1.108,6.533-1.876,14.552-1.715     C23.447-39.073,29.933-38.043,29.916-36.936z"/>
			<path style="clip-path:url(#SVGID_00000101787412836249330600000003786870193360362932_);fill:#D9D9D9;" d="M29.818-36.938     c-0.018,1.101-6.489,1.863-14.455,1.703c-7.965-0.159-14.408-1.181-14.391-2.281c0.018-1.101,6.489-1.863,14.455-1.703     C23.392-39.06,29.835-38.039,29.818-36.938z"/>
			<path style="clip-path:url(#SVGID_00000101787412836249330600000003786870193360362932_);fill:#D8D8D8;" d="M29.72-36.94     c-0.018,1.093-6.445,1.851-14.357,1.692c-7.912-0.159-14.311-1.174-14.294-2.267c0.018-1.093,6.446-1.851,14.357-1.692     C23.338-39.047,29.738-38.033,29.72-36.94z"/>
			<path style="clip-path:url(#SVGID_00000101787412836249330600000003786870193360362932_);fill:#D8D8D8;" d="M29.624-36.942     c-0.018,1.086-6.402,1.838-14.26,1.681c-7.858-0.157-14.214-1.165-14.196-2.251c0.018-1.086,6.402-1.838,14.26-1.681     C23.285-39.036,29.64-38.028,29.624-36.942z"/>
			<path style="clip-path:url(#SVGID_00000101787412836249330600000003786870193360362932_);fill:#D7D7D7;" d="M29.526-36.944     c-0.018,1.078-6.358,1.825-14.162,1.669c-7.804-0.156-14.117-1.157-14.1-2.235c0.018-1.078,6.358-1.825,14.162-1.669     C23.231-39.023,29.543-38.022,29.526-36.944z"/>
			<path style="clip-path:url(#SVGID_00000101787412836249330600000003786870193360362932_);fill:#D6D6D6;" d="M29.428-36.946     c-0.017,1.071-6.313,1.813-14.064,1.657c-7.75-0.155-14.019-1.149-14.002-2.22c0.017-1.071,6.314-1.813,14.065-1.657     C23.176-39.01,29.446-38.016,29.428-36.946z"/>
			<path style="clip-path:url(#SVGID_00000101787412836249330600000003786870193360362932_);fill:#D5D5D5;" d="M29.332-36.948     c-0.018,1.063-6.27,1.801-13.967,1.646c-7.697-0.154-13.922-1.142-13.905-2.205s6.27-1.801,13.967-1.646     S29.348-38.011,29.332-36.948z"/>
			<path style="clip-path:url(#SVGID_00000101787412836249330600000003786870193360362932_);fill:#D4D4D4;" d="M29.234-36.95     c-0.017,1.056-6.226,1.788-13.87,1.635c-7.643-0.153-13.825-1.134-13.808-2.189c0.017-1.056,6.227-1.788,13.87-1.635     C23.069-38.986,29.25-38.005,29.234-36.95z"/>
			<path style="clip-path:url(#SVGID_00000101787412836249330600000003786870193360362932_);fill:#D3D3D3;" d="M29.136-36.952     c-0.017,1.049-6.183,1.775-13.772,1.623c-7.589-0.152-13.727-1.125-13.711-2.174c0.017-1.049,6.183-1.775,13.772-1.623     C23.015-38.973,29.154-38,29.136-36.952z"/>
			<path style="clip-path:url(#SVGID_00000101787412836249330600000003786870193360362932_);fill:#D2D2D2;" d="M29.04-36.954     c-0.017,1.041-6.14,1.763-13.675,1.611C7.829-35.493,1.734-36.459,1.751-37.5c0.017-1.041,6.139-1.763,13.674-1.611     C22.96-38.961,29.056-37.995,29.04-36.954z"/>
			<path style="clip-path:url(#SVGID_00000101787412836249330600000003786870193360362932_);fill:#D1D1D1;" d="M28.942-36.956     c-0.017,1.034-6.095,1.75-13.577,1.601c-7.482-0.15-13.533-1.11-13.517-2.144c0.017-1.034,6.095-1.75,13.577-1.601     C22.907-38.949,28.958-37.989,28.942-36.956z"/>
			<path style="clip-path:url(#SVGID_00000101787412836249330600000003786870193360362932_);fill:#D1D1D1;" d="M28.844-36.958     c-0.017,1.026-6.051,1.737-13.479,1.589c-7.428-0.149-13.437-1.101-13.42-2.128s6.052-1.737,13.479-1.589     C22.853-38.936,28.861-37.984,28.844-36.958z"/>
			<path style="clip-path:url(#SVGID_00000101787412836249330600000003786870193360362932_);fill:#D0D0D0;" d="M28.748-36.959     c-0.017,1.019-6.008,1.725-13.382,1.577C7.991-35.53,2.026-36.476,2.043-37.495c0.016-1.019,6.007-1.725,13.382-1.577     C22.799-38.924,28.763-37.978,28.748-36.959z"/>
			<path style="clip-path:url(#SVGID_00000101787412836249330600000003786870193360362932_);fill:#CFCFCF;" d="M28.65-36.961     c-0.017,1.012-5.964,1.713-13.284,1.566C8.045-35.542,2.124-36.481,2.14-37.493c0.016-1.012,5.964-1.713,13.284-1.565     C22.745-38.912,28.666-37.973,28.65-36.961z"/>
			<path style="clip-path:url(#SVGID_00000101787412836249330600000003786870193360362932_);fill:#CECECE;" d="M28.552-36.963     c-0.016,1.004-5.92,1.7-13.187,1.554c-7.267-0.146-13.145-1.077-13.128-2.081c0.016-1.004,5.92-1.7,13.187-1.554     C22.691-38.899,28.569-37.967,28.552-36.963z"/>
			<path style="clip-path:url(#SVGID_00000101787412836249330600000003786870193360362932_);fill:#CDCDCD;" d="M28.456-36.965     c-0.017,0.997-5.877,1.688-13.089,1.543c-7.213-0.145-13.047-1.07-13.032-2.066c0.016-0.997,5.876-1.688,13.089-1.543     C22.637-38.887,28.471-37.961,28.456-36.965z"/>
			<path style="clip-path:url(#SVGID_00000101787412836249330600000003786870193360362932_);fill:#CCCCCC;" d="M28.358-36.967     c-0.016,0.989-5.832,1.675-12.992,1.531c-7.159-0.143-12.95-1.061-12.934-2.051c0.016-0.989,5.833-1.675,12.992-1.531     C22.583-38.874,28.374-37.957,28.358-36.967z"/>
			<path style="clip-path:url(#SVGID_00000101787412836249330600000003786870193360362932_);fill:#CBCBCB;" d="M28.26-36.969     c-0.016,0.982-5.788,1.662-12.894,1.52c-7.105-0.143-12.852-1.054-12.837-2.035c0.016-0.981,5.789-1.662,12.895-1.52     C22.529-38.862,28.277-37.951,28.26-36.969z"/>
			<path style="clip-path:url(#SVGID_00000101787412836249330600000003786870193360362932_);fill:#CACACA;" d="M28.164-36.971     c-0.016,0.975-5.745,1.649-12.797,1.508c-7.052-0.141-12.756-1.045-12.74-2.02c0.016-0.975,5.745-1.649,12.797-1.508     C22.475-38.85,28.179-37.946,28.164-36.971z"/>
			<path style="clip-path:url(#SVGID_00000101787412836249330600000003786870193360362932_);fill:#C9C9C9;" d="M28.066-36.973     c-0.016,0.967-5.701,1.637-12.699,1.497c-6.998-0.141-12.658-1.038-12.642-2.005c0.016-0.967,5.701-1.637,12.699-1.497     C22.421-38.837,28.082-37.94,28.066-36.973z"/>
			<path style="clip-path:url(#SVGID_00000101787412836249330600000003786870193360362932_);fill:#C8C8C8;" d="M27.968-36.975     c-0.015,0.96-5.657,1.624-12.601,1.485c-6.944-0.14-12.561-1.03-12.546-1.989c0.016-0.96,5.657-1.624,12.602-1.485     C22.368-38.825,27.984-37.934,27.968-36.975z"/>
			<path style="clip-path:url(#SVGID_00000101787412836249330600000003786870193360362932_);fill:#C7C7C7;" d="M27.872-36.977     c-0.016,0.952-5.613,1.612-12.504,1.474c-6.891-0.138-12.464-1.021-12.449-1.974c0.016-0.952,5.614-1.612,12.504-1.474     C22.313-38.813,27.887-37.929,27.872-36.977z"/>
			<path style="clip-path:url(#SVGID_00000101787412836249330600000003786870193360362932_);fill:#C6C6C6;" d="M27.774-36.979     c-0.015,0.944-5.569,1.6-12.406,1.462c-6.837-0.137-12.367-1.014-12.352-1.958c0.015-0.944,5.57-1.6,12.406-1.462     C22.259-38.8,27.79-37.923,27.774-36.979z"/>
			<path style="clip-path:url(#SVGID_00000101787412836249330600000003786870193360362932_);fill:#C5C5C5;" d="M27.677-36.981     c-0.016,0.938-5.526,1.587-12.31,1.451c-6.783-0.137-12.269-1.006-12.254-1.943c0.015-0.938,5.526-1.587,12.309-1.451     C22.206-38.788,27.692-37.918,27.677-36.981z"/>
			<path style="clip-path:url(#SVGID_00000101787412836249330600000003786870193360362932_);fill:#C4C4C4;" d="M27.58-36.983     c-0.015,0.93-5.482,1.574-12.211,1.439C8.639-35.678,3.196-36.541,3.21-37.471c0.015-0.93,5.482-1.574,12.211-1.439     C22.151-38.776,27.594-37.913,27.58-36.983z"/>
			<path style="clip-path:url(#SVGID_00000101787412836249330600000003786870193360362932_);fill:#C3C3C3;" d="M27.482-36.985     c-0.015,0.923-5.438,1.562-12.114,1.428c-6.675-0.134-12.075-0.99-12.06-1.912c0.015-0.923,5.438-1.561,12.114-1.428     C22.097-38.763,27.497-37.907,27.482-36.985z"/>
			<path style="clip-path:url(#SVGID_00000101787412836249330600000003786870193360362932_);fill:#C2C2C2;" d="M27.385-36.987     c-0.015,0.915-5.396,1.549-12.017,1.416S3.391-36.552,3.405-37.467c0.015-0.915,5.395-1.549,12.017-1.416     C22.043-38.75,27.4-37.902,27.385-36.987z"/>
			<path style="clip-path:url(#SVGID_00000101787412836249330600000003786870193360362932_);fill:#C1C1C1;" d="M27.288-36.989     c-0.015,0.907-5.351,1.536-11.919,1.404c-6.568-0.131-11.881-0.974-11.866-1.881c0.015-0.907,5.351-1.536,11.919-1.404     C21.99-38.739,27.302-37.896,27.288-36.989z"/>
			<path style="clip-path:url(#SVGID_00000101787412836249330600000003786870193360362932_);fill:#C0C0C0;" d="M27.19-36.991     c-0.015,0.9-5.307,1.524-11.821,1.394C8.854-35.728,3.585-36.564,3.6-37.463c0.015-0.9,5.307-1.523,11.822-1.394     C21.935-38.726,27.205-37.89,27.19-36.991z"/>
			<path style="clip-path:url(#SVGID_00000101787412836249330600000003786870193360362932_);fill:#BFBFBF;" d="M27.093-36.993     c-0.015,0.893-5.264,1.512-11.724,1.382c-6.46-0.13-11.687-0.958-11.672-1.851c0.014-0.892,5.263-1.512,11.724-1.382     C21.881-38.713,27.107-37.885,27.093-36.993z"/>
			<path style="clip-path:url(#SVGID_00000101787412836249330600000003786870193360362932_);fill:#BEBEBE;" d="M26.996-36.995     c-0.015,0.886-5.22,1.499-11.626,1.37c-6.407-0.128-11.589-0.95-11.575-1.835c0.014-0.886,5.22-1.499,11.626-1.37     C21.828-38.702,27.01-37.879,26.996-36.995z"/>
			<path style="clip-path:url(#SVGID_00000101787412836249330600000003786870193360362932_);fill:#BDBDBD;" d="M26.898-36.997     c-0.014,0.878-5.176,1.486-11.528,1.358C9.017-35.765,3.877-36.58,3.892-37.458c0.014-0.878,5.176-1.486,11.529-1.358     C21.774-38.689,26.913-37.874,26.898-36.997z"/>
			<path style="clip-path:url(#SVGID_00000101787412836249330600000003786870193360362932_);fill:#BCBCBC;" d="M26.801-36.999     c-0.015,0.87-5.132,1.474-11.432,1.348c-6.299-0.127-11.395-0.935-11.38-1.805c0.014-0.87,5.132-1.474,11.431-1.348     C21.719-38.676,26.815-37.869,26.801-36.999z"/>
			<path style="clip-path:url(#SVGID_00000101787412836249330600000003786870193360362932_);fill:#BABABA;" d="M26.704-37     c-0.014,0.863-5.088,1.461-11.333,1.336C9.124-35.79,4.073-36.591,4.086-37.454C4.1-38.317,9.175-38.915,15.42-38.79     C21.666-38.665,26.717-37.863,26.704-37z"/>
			<path style="clip-path:url(#SVGID_00000101787412836249330600000003786870193360362932_);fill:#B9B9B9;" d="M26.606-37.002     c-0.014,0.855-5.044,1.448-11.236,1.324c-6.192-0.124-11.2-0.918-11.187-1.773c0.014-0.855,5.045-1.448,11.236-1.324     S26.62-37.858,26.606-37.002z"/>
			<path style="clip-path:url(#SVGID_00000101787412836249330600000003786870193360362932_);fill:#B8B8B8;" d="M26.509-37.004     c-0.014,0.849-5.001,1.436-11.139,1.313c-6.138-0.123-11.103-0.91-11.089-1.758c0.014-0.849,5-1.436,11.139-1.313     C21.558-38.639,26.523-37.852,26.509-37.004z"/>
			<path style="clip-path:url(#SVGID_00000101787412836249330600000003786870193360362932_);fill:#B7B7B7;" d="M26.412-37.006     c-0.014,0.841-4.957,1.423-11.041,1.302c-6.084-0.122-11.006-0.902-10.992-1.743c0.014-0.841,4.956-1.423,11.041-1.302     C21.503-38.627,26.425-37.847,26.412-37.006z"/>
			<path style="clip-path:url(#SVGID_00000101787412836249330600000003786870193360362932_);fill:#B6B6B6;" d="M26.314-37.008     c-0.013,0.833-4.913,1.411-10.943,1.29c-6.03-0.121-10.908-0.895-10.895-1.728c0.014-0.833,4.913-1.411,10.944-1.29     C21.45-38.615,26.328-37.841,26.314-37.008z"/>
			<path style="clip-path:url(#SVGID_00000101787412836249330600000003786870193360362932_);fill:#B5B5B5;" d="M26.217-37.01     c-0.014,0.826-4.869,1.398-10.846,1.278c-5.977-0.12-10.811-0.887-10.798-1.712c0.013-0.826,4.869-1.398,10.846-1.278     C21.396-38.602,26.23-37.835,26.217-37.01z"/>
			<path style="clip-path:url(#SVGID_00000101787412836249330600000003786870193360362932_);fill:#B4B4B4;" d="M26.12-37.012     c-0.013,0.818-4.825,1.386-10.749,1.267C9.448-35.864,4.657-36.624,4.67-37.442c0.013-0.818,4.825-1.386,10.749-1.267     C21.342-38.59,26.133-37.831,26.12-37.012z"/>
			<path style="clip-path:url(#SVGID_00000101787412836249330600000003786870193360362932_);fill:#B3B3B3;" d="M26.022-37.014     c-0.013,0.812-4.781,1.373-10.65,1.256c-5.87-0.118-10.617-0.871-10.604-1.682c0.013-0.812,4.782-1.373,10.651-1.256     C21.288-38.578,26.036-37.825,26.022-37.014z"/>
			<path style="clip-path:url(#SVGID_00000101787412836249330600000003786870193360362932_);fill:#B1B1B1;" d="M25.925-37.016     c-0.013,0.804-4.738,1.36-10.554,1.244c-5.815-0.117-10.519-0.862-10.507-1.666c0.013-0.804,4.738-1.36,10.554-1.244     C21.234-38.565,25.938-37.82,25.925-37.016z"/>
			<path style="clip-path:url(#SVGID_00000101787412836249330600000003786870193360362932_);fill:#B0B0B0;" d="M25.828-37.018     c-0.013,0.796-4.694,1.348-10.456,1.232C9.61-35.901,4.95-36.64,4.962-37.436c0.013-0.796,4.694-1.348,10.456-1.232     C21.18-38.553,25.84-37.814,25.828-37.018z"/>
			<path style="clip-path:url(#SVGID_00000101787412836249330600000003786870193360362932_);fill:#AFAFAF;" d="M25.73-37.02     c-0.013,0.789-4.649,1.335-10.358,1.221C9.664-35.914,5.047-36.646,5.06-37.434c0.013-0.789,4.65-1.335,10.358-1.221     C21.126-38.541,25.743-37.808,25.73-37.02z"/>
			<path style="clip-path:url(#SVGID_00000101787412836249330600000003786870193360362932_);fill:#AEAEAE;" d="M25.633-37.022     c-0.013,0.781-4.606,1.323-10.261,1.209c-5.654-0.113-10.227-0.838-10.215-1.619c0.013-0.781,4.606-1.323,10.261-1.209     C21.072-38.528,25.646-37.803,25.633-37.022z"/>
			<path style="clip-path:url(#SVGID_00000101787412836249330600000003786870193360362932_);fill:#ADADAD;" d="M25.536-37.024     c-0.013,0.775-4.563,1.311-10.163,1.198C9.772-35.938,5.242-36.657,5.254-37.43c0.012-0.774,4.562-1.311,10.163-1.198     C21.018-38.516,25.548-37.797,25.536-37.024z"/>
			<path style="clip-path:url(#SVGID_00000101787412836249330600000003786870193360362932_);fill:#ACACAC;" d="M25.438-37.026     c-0.012,0.767-4.518,1.298-10.065,1.187c-5.547-0.111-10.033-0.822-10.021-1.589c0.012-0.767,4.519-1.298,10.066-1.186     C20.964-38.503,25.451-37.792,25.438-37.026z"/>
			<path style="clip-path:url(#SVGID_00000101787412836249330600000003786870193360362932_);fill:#AAAAAA;" d="M25.341-37.028     c-0.013,0.759-4.476,1.285-9.968,1.175c-5.493-0.11-9.936-0.814-9.924-1.573c0.012-0.759,4.475-1.285,9.968-1.175     C20.911-38.491,25.353-37.787,25.341-37.028z"/>
			<path style="clip-path:url(#SVGID_00000101787412836249330600000003786870193360362932_);fill:#A9A9A9;" d="M25.244-37.03     c-0.012,0.752-4.432,1.272-9.871,1.163c-5.439-0.108-9.839-0.807-9.827-1.558c0.012-0.752,4.431-1.272,9.871-1.163     C20.856-38.479,25.256-37.781,25.244-37.03z"/>
			<path style="clip-path:url(#SVGID_00000101787412836249330600000003786870193360362932_);fill:#A8A8A8;" d="M25.147-37.032     c-0.013,0.744-4.388,1.26-9.773,1.152c-5.386-0.108-9.742-0.799-9.73-1.543c0.012-0.744,4.388-1.26,9.773-1.152     C20.802-38.466,25.159-37.776,25.147-37.032z"/>
			<path style="clip-path:url(#SVGID_00000101787412836249330600000003786870193360362932_);fill:#A7A7A7;" d="M25.049-37.034     c-0.012,0.737-4.344,1.247-9.676,1.141C10.041-36,5.729-36.684,5.741-37.42c0.012-0.737,4.344-1.247,9.676-1.141     C20.749-38.454,25.061-37.77,25.049-37.034z"/>
			<path style="clip-path:url(#SVGID_00000101787412836249330600000003786870193360362932_);fill:#A5A5A5;" d="M24.952-37.036     c-0.012,0.729-4.3,1.234-9.578,1.129c-5.278-0.105-9.547-0.782-9.536-1.512c0.012-0.729,4.3-1.234,9.578-1.129     C20.695-38.442,24.963-37.765,24.952-37.036z"/>
			<path style="clip-path:url(#SVGID_00000101787412836249330600000003786870193360362932_);fill:#A4A4A4;" d="M24.855-37.038     c-0.012,0.722-4.257,1.223-9.481,1.117c-5.225-0.104-9.45-0.774-9.438-1.496c0.012-0.722,4.256-1.223,9.48-1.117     C20.64-38.429,24.866-37.759,24.855-37.038z"/>
			<path style="clip-path:url(#SVGID_00000101787412836249330600000003786870193360362932_);fill:#A3A3A3;" d="M24.757-37.04     c-0.012,0.715-4.213,1.21-9.383,1.106c-5.17-0.104-9.353-0.768-9.341-1.481c0.012-0.715,4.212-1.21,9.383-1.106     C20.586-38.416,24.769-37.753,24.757-37.04z"/>
			<path style="clip-path:url(#SVGID_00000101787412836249330600000003786870193360362932_);fill:#A2A2A2;" d="M24.66-37.041     c-0.011,0.707-4.168,1.197-9.285,1.095c-5.117-0.103-9.256-0.759-9.245-1.466c0.012-0.707,4.169-1.197,9.286-1.095     C20.533-38.405,24.671-37.749,24.66-37.041z"/>
			<path style="clip-path:url(#SVGID_00000101787412836249330600000003786870193360362932_);fill:#A0A0A0;" d="M24.563-37.043     c-0.012,0.7-4.125,1.185-9.188,1.083c-5.063-0.101-9.158-0.751-9.147-1.45c0.011-0.7,4.124-1.184,9.188-1.083     C20.478-38.392,24.574-37.743,24.563-37.043z"/>
			<path style="clip-path:url(#SVGID_00000101787412836249330600000003786870193360362932_);fill:#9F9F9F;" d="M24.465-37.045     c-0.011,0.692-4.081,1.172-9.09,1.071c-5.009-0.101-9.061-0.742-9.05-1.435c0.011-0.692,4.081-1.172,9.09-1.071     C20.424-38.379,24.476-37.738,24.465-37.045z"/>
			<path style="clip-path:url(#SVGID_00000101787412836249330600000003786870193360362932_);fill:#9E9E9E;" d="M24.368-37.047     c-0.011,0.685-4.037,1.159-8.993,1.06c-4.955-0.099-8.964-0.734-8.953-1.419c0.011-0.684,4.038-1.159,8.993-1.059     C20.371-38.368,24.379-37.732,24.368-37.047z"/>
			<path style="clip-path:url(#SVGID_00000101787412836249330600000003786870193360362932_);fill:#9D9D9D;" d="M24.271-37.049     c-0.011,0.678-3.994,1.146-8.895,1.049c-4.902-0.099-8.867-0.728-8.856-1.404c0.011-0.678,3.993-1.146,8.895-1.049     C20.317-38.355,24.282-37.726,24.271-37.049z"/>
			<path style="clip-path:url(#SVGID_00000101787412836249330600000003786870193360362932_);fill:#9B9B9B;" d="M24.173-37.051     c-0.011,0.67-3.949,1.134-8.798,1.037c-4.848-0.098-8.77-0.719-8.759-1.389c0.011-0.67,3.95-1.134,8.798-1.037     C20.262-38.342,24.184-37.721,24.173-37.051z"/>
			<path style="clip-path:url(#SVGID_00000101787412836249330600000003786870193360362932_);fill:#9A9A9A;" d="M24.076-37.053     c-0.011,0.662-3.905,1.122-8.7,1.025c-4.794-0.096-8.673-0.711-8.662-1.373c0.011-0.662,3.906-1.122,8.7-1.025     C20.208-38.331,24.086-37.715,24.076-37.053z"/>
			<path style="clip-path:url(#SVGID_00000101787412836249330600000003786870193360362932_);fill:#999999;" d="M23.979-37.055     c-0.011,0.655-3.862,1.109-8.603,1.014c-4.741-0.095-8.575-0.703-8.564-1.358c0.01-0.655,3.862-1.109,8.602-1.014     C20.155-38.318,23.989-37.709,23.979-37.055z"/>
			<path style="clip-path:url(#SVGID_00000101787412836249330600000003786870193360362932_);fill:#979797;" d="M23.881-37.057     c-0.011,0.647-3.818,1.097-8.505,1.003c-4.686-0.095-8.477-0.695-8.467-1.343c0.01-0.647,3.818-1.097,8.505-1.003     C20.101-38.305,23.892-37.705,23.881-37.057z"/>
			<path style="clip-path:url(#SVGID_00000101787412836249330600000003786870193360362932_);fill:#969696;" d="M23.784-37.059     c-0.01,0.641-3.774,1.084-8.407,0.991c-4.633-0.093-8.381-0.688-8.371-1.327c0.01-0.641,3.774-1.084,8.408-0.991     C20.046-38.293,23.794-37.699,23.784-37.059z"/>
			<path style="clip-path:url(#SVGID_00000101787412836249330600000003786870193360362932_);fill:#959595;" d="M23.687-37.061     c-0.011,0.633-3.731,1.071-8.31,0.98c-4.579-0.092-8.283-0.679-8.273-1.312c0.01-0.633,3.73-1.071,8.31-0.979     C19.993-38.281,23.697-37.694,23.687-37.061z"/>
			<path style="clip-path:url(#SVGID_00000101787412836249330600000003786870193360362932_);fill:#939393;" d="M23.589-37.063     c-0.01,0.625-3.687,1.059-8.212,0.968c-4.526-0.091-8.186-0.671-8.176-1.296c0.01-0.625,3.687-1.059,8.212-0.968     C19.939-38.268,23.599-37.688,23.589-37.063z"/>
			<path style="clip-path:url(#SVGID_00000101787412836249330600000003786870193360362932_);fill:#929292;" d="M23.492-37.065     c-0.01,0.618-3.642,1.046-8.115,0.957c-4.472-0.09-8.089-0.664-8.079-1.281c0.01-0.618,3.643-1.046,8.115-0.957     C19.885-38.256,23.502-37.682,23.492-37.065z"/>
			<path style="clip-path:url(#SVGID_00000101787412836249330600000003786870193360362932_);fill:#919191;" d="M23.395-37.067     c-0.01,0.61-3.6,1.033-8.018,0.945c-4.419-0.089-7.992-0.655-7.982-1.266c0.01-0.61,3.6-1.033,8.017-0.945     C19.831-38.244,23.405-37.677,23.395-37.067z"/>
			<path style="clip-path:url(#SVGID_00000101787412836249330600000003786870193360362932_);fill:#8F8F8F;" d="M23.297-37.069     c-0.01,0.604-3.556,1.021-7.92,0.934c-4.364-0.088-7.895-0.647-7.885-1.25c0.01-0.604,3.556-1.022,7.92-0.934     C19.777-38.231,23.307-37.671,23.297-37.069z"/>
			<path style="clip-path:url(#SVGID_00000101787412836249330600000003786870193360362932_);fill:#8E8E8E;" d="M23.2-37.071     c-0.009,0.596-3.512,1.009-7.822,0.922c-4.311-0.086-7.797-0.639-7.788-1.234c0.01-0.596,3.512-1.009,7.823-0.922     C19.723-38.219,23.209-37.666,23.2-37.071z"/>
			<path style="clip-path:url(#SVGID_00000101787412836249330600000003786870193360362932_);fill:#8D8D8D;" d="M23.103-37.073     c-0.01,0.588-3.468,0.996-7.725,0.91c-4.257-0.085-7.7-0.631-7.691-1.219c0.01-0.588,3.468-0.996,7.725-0.91     C19.669-38.207,23.112-37.661,23.103-37.073z"/>
			<path style="clip-path:url(#SVGID_00000101787412836249330600000003786870193360362932_);fill:#8B8B8B;" d="M23.005-37.075     c-0.009,0.581-3.424,0.983-7.627,0.899c-4.203-0.085-7.603-0.624-7.593-1.204c0.009-0.581,3.424-0.983,7.627-0.899     C19.615-38.194,23.015-37.655,23.005-37.075z"/>
			<path style="clip-path:url(#SVGID_00000101787412836249330600000003786870193360362932_);fill:#8A8A8A;" d="M22.909-37.077     c-0.01,0.573-3.381,0.971-7.53,0.888c-4.15-0.083-7.506-0.615-7.497-1.188c0.009-0.573,3.38-0.971,7.53-0.888     C19.561-38.182,22.917-37.65,22.909-37.077z"/>
			<path style="clip-path:url(#SVGID_00000101787412836249330600000003786870193360362932_);fill:#888888;" d="M22.811-37.079     c-0.009,0.566-3.337,0.958-7.433,0.876c-4.096-0.082-7.408-0.607-7.4-1.173c0.009-0.566,3.337-0.958,7.433-0.876     C19.507-38.169,22.82-37.644,22.811-37.079z"/>
			<path style="clip-path:url(#SVGID_00000101787412836249330600000003786870193360362932_);fill:#878787;" d="M22.713-37.081     c-0.009,0.559-3.293,0.945-7.335,0.864c-4.042-0.081-7.311-0.599-7.302-1.157c0.009-0.559,3.293-0.945,7.335-0.864     C19.454-38.157,22.722-37.639,22.713-37.081z"/>
			<path style="clip-path:url(#SVGID_00000101787412836249330600000003786870193360362932_);fill:#868686;" d="M22.617-37.083     c-0.01,0.551-3.25,0.934-7.238,0.854c-3.988-0.08-7.214-0.592-7.205-1.143c0.009-0.551,3.249-0.934,7.237-0.854     C19.399-38.145,22.625-37.633,22.617-37.083z"/>
			<path style="clip-path:url(#SVGID_00000101787412836249330600000003786870193360362932_);fill:#848484;" d="M22.519-37.084     c-0.009,0.544-3.205,0.921-7.14,0.842c-3.934-0.079-7.117-0.584-7.108-1.127c0.009-0.544,3.206-0.921,7.14-0.842     C19.345-38.132,22.528-37.627,22.519-37.084z"/>
			<path style="clip-path:url(#SVGID_00000101787412836249330600000003786870193360362932_);fill:#838383;" d="M22.421-37.086     c-0.009,0.536-3.161,0.908-7.042,0.83c-3.881-0.078-7.019-0.575-7.011-1.111c0.008-0.536,3.161-0.908,7.042-0.83     C19.291-38.12,22.43-37.623,22.421-37.086z"/>
			<path style="clip-path:url(#SVGID_00000101787412836249330600000003786870193360362932_);fill:#818181;" d="M22.325-37.088     c-0.009,0.529-3.118,0.896-6.945,0.818c-3.827-0.076-6.922-0.567-6.913-1.096c0.008-0.529,3.118-0.896,6.945-0.818     C19.238-38.108,22.333-37.617,22.325-37.088z"/>
			<path style="clip-path:url(#SVGID_00000101787412836249330600000003786870193360362932_);fill:#808080;" d="M22.227-37.09     c-0.009,0.521-3.074,0.883-6.847,0.808c-3.773-0.076-6.825-0.56-6.817-1.081s3.074-0.883,6.847-0.808     C19.183-38.095,22.236-37.612,22.227-37.09z"/>
			<path style="clip-path:url(#SVGID_00000101787412836249330600000003786870193360362932_);fill:#7E7E7E;" d="M22.129-37.092     c-0.008,0.514-3.03,0.87-6.749,0.796c-3.719-0.075-6.727-0.552-6.72-1.065c0.008-0.514,3.03-0.87,6.75-0.796     C19.129-38.083,22.138-37.606,22.129-37.092z"/>
			<path style="clip-path:url(#SVGID_00000101787412836249330600000003786870193360362932_);fill:#7D7D7D;" d="M22.033-37.094     c-0.009,0.507-2.986,0.857-6.652,0.784c-3.666-0.073-6.631-0.544-6.623-1.05c0.008-0.507,2.986-0.857,6.652-0.784     C19.076-38.071,22.041-37.6,22.033-37.094z"/>
			<path style="clip-path:url(#SVGID_00000101787412836249330600000003786870193360362932_);fill:#7C7C7C;" d="M21.935-37.096     c-0.008,0.499-2.942,0.845-6.555,0.772c-3.612-0.072-6.533-0.535-6.525-1.034c0.008-0.499,2.942-0.845,6.555-0.772     C19.022-38.058,21.943-37.595,21.935-37.096z"/>
			<path style="clip-path:url(#SVGID_00000101787412836249330600000003786870193360362932_);fill:#7A7A7A;" d="M21.837-37.098     c-0.008,0.492-2.898,0.833-6.456,0.761c-3.558-0.071-6.436-0.527-6.429-1.019c0.008-0.492,2.899-0.833,6.457-0.761     C18.967-38.045,21.845-37.589,21.837-37.098z"/>
			<path style="clip-path:url(#SVGID_00000101787412836249330600000003786870193360362932_);fill:#797979;" d="M21.741-37.1     c-0.008,0.484-2.855,0.82-6.36,0.75c-3.504-0.07-6.339-0.52-6.331-1.004c0.008-0.484,2.855-0.82,6.359-0.75     C18.914-38.034,21.749-37.584,21.741-37.1z"/>
			<path style="clip-path:url(#SVGID_00000101787412836249330600000003786870193360362932_);fill:#777777;" d="M21.643-37.102     c-0.008,0.477-2.811,0.808-6.262,0.738c-3.451-0.069-6.242-0.512-6.234-0.988c0.008-0.476,2.811-0.808,6.262-0.738     C18.86-38.021,21.651-37.579,21.643-37.102z"/>
			<path style="clip-path:url(#SVGID_00000101787412836249330600000003786870193360362932_);fill:#767676;" d="M21.545-37.104     c-0.007,0.47-2.767,0.795-6.164,0.726c-3.397-0.068-6.144-0.504-6.137-0.973c0.008-0.47,2.768-0.795,6.164-0.727     C18.805-38.008,21.553-37.573,21.545-37.104z"/>
			<path style="clip-path:url(#SVGID_00000101787412836249330600000003786870193360362932_);fill:#747474;" d="M21.449-37.106     c-0.008,0.462-2.724,0.782-6.067,0.715c-3.343-0.066-6.047-0.495-6.04-0.957c0.007-0.462,2.724-0.782,6.067-0.715     C18.751-37.997,21.456-37.568,21.449-37.106z"/>
			<path style="clip-path:url(#SVGID_00000101787412836249330600000003786870193360362932_);fill:#737373;" d="M21.351-37.108     c-0.007,0.455-2.68,0.77-5.969,0.704c-3.29-0.066-5.95-0.488-5.943-0.942c0.007-0.455,2.68-0.77,5.969-0.704     C18.698-37.984,21.359-37.562,21.351-37.108z"/>
			<path style="clip-path:url(#SVGID_00000101787412836249330600000003786870193360362932_);fill:#717171;" d="M21.253-37.11     c-0.007,0.447-2.636,0.757-5.872,0.692c-3.235-0.065-5.853-0.48-5.846-0.927c0.007-0.447,2.636-0.757,5.872-0.692     C18.644-37.971,21.261-37.557,21.253-37.11z"/>
			<path style="clip-path:url(#SVGID_00000101787412836249330600000003786870193360362932_);fill:#707070;" d="M21.157-37.112     c-0.007,0.439-2.593,0.744-5.774,0.681c-3.182-0.063-5.756-0.472-5.749-0.911c0.007-0.44,2.592-0.744,5.774-0.681     C18.59-37.959,21.164-37.551,21.157-37.112z"/>
			<path style="clip-path:url(#SVGID_00000101787412836249330600000003786870193360362932_);fill:#6E6E6E;" d="M21.059-37.114     c-0.007,0.433-2.548,0.732-5.677,0.669c-3.128-0.063-5.658-0.464-5.651-0.896c0.007-0.433,2.548-0.732,5.677-0.669     C18.536-37.947,21.066-37.545,21.059-37.114z"/>
			<path style="clip-path:url(#SVGID_00000101787412836249330600000003786870193360362932_);fill:#6C6C6C;" d="M20.961-37.116     c-0.007,0.425-2.504,0.72-5.579,0.658c-3.075-0.063-5.561-0.456-5.555-0.881c0.007-0.425,2.505-0.72,5.579-0.658     C18.482-37.934,20.968-37.541,20.961-37.116z"/>
			<path style="clip-path:url(#SVGID_00000101787412836249330600000003786870193360362932_);fill:#6B6B6B;" d="M20.865-37.118     c-0.007,0.418-2.461,0.707-5.482,0.646c-3.02-0.061-5.464-0.448-5.457-0.865c0.007-0.418,2.461-0.707,5.482-0.646     C18.428-37.922,20.872-37.535,20.865-37.118z"/>
			<path style="clip-path:url(#SVGID_00000101787412836249330600000003786870193360362932_);fill:#696969;" d="M20.767-37.12     c-0.007,0.41-2.417,0.694-5.384,0.635c-2.967-0.06-5.367-0.44-5.36-0.85c0.006-0.41,2.417-0.694,5.384-0.635     C18.374-37.91,20.774-37.529,20.767-37.12z"/>
			<path style="clip-path:url(#SVGID_00000101787412836249330600000003786870193360362932_);fill:#686868;" d="M20.669-37.122     c-0.006,0.402-2.373,0.682-5.286,0.623c-2.913-0.059-5.27-0.432-5.263-0.834c0.006-0.402,2.373-0.682,5.287-0.623     C18.32-37.897,20.676-37.524,20.669-37.122z"/>
			<path style="clip-path:url(#SVGID_00000101787412836249330600000003786870193360362932_);fill:#666666;" d="M20.573-37.124     c-0.007,0.395-2.33,0.669-5.189,0.611c-2.859-0.057-5.172-0.424-5.166-0.818c0.006-0.396,2.33-0.669,5.189-0.611     C18.266-37.885,20.579-37.518,20.573-37.124z"/>
			<path style="clip-path:url(#SVGID_00000101787412836249330600000003786870193360362932_);fill:#656565;" d="M20.475-37.125     c-0.006,0.388-2.286,0.656-5.091,0.601c-2.806-0.057-5.075-0.416-5.069-0.804c0.006-0.388,2.286-0.656,5.091-0.601     C18.212-37.873,20.482-37.513,20.475-37.125z"/>
			<path style="clip-path:url(#SVGID_00000101787412836249330600000003786870193360362932_);fill:#636363;" d="M20.378-37.127     c-0.007,0.381-2.243,0.644-4.995,0.589c-2.752-0.056-4.978-0.408-4.972-0.788c0.006-0.381,2.242-0.643,4.994-0.589     C18.158-37.86,20.384-37.507,20.378-37.127z"/>
			<path style="clip-path:url(#SVGID_00000101787412836249330600000003786870193360362932_);fill:#616161;" d="M20.281-37.129     c-0.006,0.373-2.198,0.632-4.897,0.577c-2.698-0.054-4.881-0.4-4.875-0.772c0.006-0.373,2.198-0.632,4.896-0.577     C18.104-37.848,20.287-37.501,20.281-37.129z"/>
			<path style="clip-path:url(#SVGID_00000101787412836249330600000003786870193360362932_);fill:#606060;" d="M20.183-37.131     c-0.006,0.365-2.154,0.619-4.799,0.565c-2.644-0.053-4.783-0.392-4.777-0.757c0.006-0.365,2.154-0.619,4.799-0.565     C18.05-37.835,20.189-37.497,20.183-37.131z"/>
			<path style="clip-path:url(#SVGID_00000101787412836249330600000003786870193360362932_);fill:#5E5E5E;" d="M20.086-37.133     c-0.006,0.358-2.111,0.606-4.702,0.555c-2.591-0.053-4.686-0.385-4.681-0.742c0.006-0.358,2.11-0.606,4.701-0.555     C17.996-37.823,20.091-37.491,20.086-37.133z"/>
			<path style="clip-path:url(#SVGID_00000101787412836249330600000003786870193360362932_);fill:#5D5D5D;" d="M19.989-37.135     c-0.006,0.351-2.067,0.594-4.604,0.543c-2.537-0.051-4.589-0.376-4.583-0.727c0.006-0.351,2.067-0.594,4.604-0.543     C17.942-37.811,19.995-37.486,19.989-37.135z"/>
			<path style="clip-path:url(#SVGID_00000101787412836249330600000003786870193360362932_);fill:#5B5B5B;" d="M19.891-37.137     c-0.005,0.344-2.023,0.581-4.506,0.531c-2.483-0.05-4.492-0.368-4.486-0.711c0.005-0.344,2.023-0.581,4.506-0.531     C17.888-37.798,19.897-37.48,19.891-37.137z"/>
			<path style="clip-path:url(#SVGID_00000101787412836249330600000003786870193360362932_);fill:#595959;" d="M19.794-37.139     c-0.006,0.336-1.98,0.568-4.409,0.52c-2.43-0.049-4.394-0.36-4.389-0.695c0.005-0.336,1.979-0.568,4.409-0.52     C17.834-37.786,19.799-37.474,19.794-37.139z"/>
			<path style="clip-path:url(#SVGID_00000101787412836249330600000003786870193360362932_);fill:#585858;" d="M19.697-37.141     c-0.005,0.328-1.935,0.556-4.311,0.509c-2.376-0.048-4.297-0.353-4.292-0.681c0.005-0.328,1.935-0.556,4.311-0.509     C17.78-37.774,19.702-37.469,19.697-37.141z"/>
			<path style="clip-path:url(#SVGID_00000101787412836249330600000003786870193360362932_);fill:#565656;" d="M19.599-37.143     c-0.005,0.321-1.892,0.543-4.213,0.497c-2.322-0.047-4.2-0.345-4.195-0.665c0.005-0.321,1.892-0.543,4.214-0.497     C17.727-37.761,19.605-37.463,19.599-37.143z"/>
			<path style="clip-path:url(#SVGID_00000101787412836249330600000003786870193360362932_);fill:#545454;" d="M19.502-37.145     c-0.006,0.314-1.848,0.531-4.117,0.485c-2.268-0.046-4.103-0.336-4.098-0.649c0.005-0.313,1.848-0.531,4.116-0.485     C17.672-37.749,19.507-37.458,19.502-37.145z"/>
			<path style="clip-path:url(#SVGID_00000101787412836249330600000003786870193360362932_);fill:#535353;" d="M19.405-37.147     c-0.005,0.307-1.804,0.519-4.018,0.474c-2.215-0.044-4.006-0.328-4.001-0.634c0.005-0.307,1.804-0.519,4.018-0.474     C17.619-37.737,19.41-37.453,19.405-37.147z"/>
			<path style="clip-path:url(#SVGID_00000101787412836249330600000003786870193360362932_);fill:#515151;" d="M19.307-37.149     c-0.005,0.299-1.76,0.506-3.921,0.463c-2.161-0.044-3.908-0.321-3.904-0.619c0.005-0.299,1.761-0.506,3.921-0.463     C17.564-37.724,19.312-37.447,19.307-37.149z"/>
			<path style="clip-path:url(#SVGID_00000101787412836249330600000003786870193360362932_);fill:#4F4F4F;" d="M19.21-37.151     c-0.005,0.291-1.717,0.493-3.824,0.451c-2.108-0.043-3.812-0.313-3.807-0.604c0.004-0.291,1.716-0.493,3.823-0.451     C17.511-37.711,19.214-37.442,19.21-37.151z"/>
			<path style="clip-path:url(#SVGID_00000101787412836249330600000003786870193360362932_);fill:#4E4E4E;" d="M19.113-37.153     c-0.005,0.284-1.673,0.48-3.726,0.439c-2.053-0.041-3.714-0.305-3.71-0.588c0.004-0.284,1.673-0.481,3.726-0.44     C17.457-37.7,19.118-37.436,19.113-37.153z"/>
			<path style="clip-path:url(#SVGID_00000101787412836249330600000003786870193360362932_);fill:#4C4C4C;" d="M19.015-37.155     c-0.004,0.276-1.628,0.468-3.628,0.428c-2-0.04-3.617-0.296-3.613-0.572c0.004-0.276,1.629-0.468,3.628-0.428     C17.403-37.687,19.02-37.431,19.015-37.155z"/>
			<path style="clip-path:url(#SVGID_00000101787412836249330600000003786870193360362932_);fill:#4A4A4A;" d="M18.918-37.157     c-0.005,0.27-1.586,0.455-3.531,0.416c-1.946-0.039-3.519-0.288-3.515-0.557c0.004-0.27,1.585-0.455,3.531-0.416     C17.349-37.674,18.922-37.425,18.918-37.157z"/>
			<path style="clip-path:url(#SVGID_00000101787412836249330600000003786870193360362932_);fill:#494949;" d="M18.821-37.159     c-0.004,0.262-1.542,0.443-3.434,0.405c-1.892-0.038-3.422-0.281-3.418-0.542c0.004-0.262,1.542-0.443,3.434-0.405     C17.294-37.663,18.825-37.419,18.821-37.159z"/>
			<path style="clip-path:url(#SVGID_00000101787412836249330600000003786870193360362932_);fill:#474747;" d="M18.723-37.161     c-0.004,0.254-1.497,0.431-3.336,0.394c-1.838-0.037-3.325-0.272-3.321-0.526c0.004-0.254,1.498-0.431,3.336-0.393     C17.241-37.65,18.728-37.415,18.723-37.161z"/>
			<path style="clip-path:url(#SVGID_00000101787412836249330600000003786870193360362932_);fill:#454545;" d="M18.626-37.163     c-0.004,0.247-1.454,0.418-3.238,0.382c-1.784-0.035-3.228-0.265-3.224-0.511c0.004-0.247,1.454-0.418,3.238-0.382     C17.187-37.638,18.63-37.409,18.626-37.163z"/>
			<path style="clip-path:url(#SVGID_00000101787412836249330600000003786870193360362932_);fill:#444444;" d="M18.529-37.165     c-0.004,0.239-1.41,0.405-3.141,0.37c-1.731-0.034-3.131-0.256-3.127-0.495c0.004-0.239,1.41-0.405,3.141-0.37     C17.133-37.625,18.533-37.404,18.529-37.165z"/>
			<path style="clip-path:url(#SVGID_00000101787412836249330600000003786870193360362932_);fill:#424242;" d="M18.432-37.166     c-0.004,0.232-1.366,0.392-3.043,0.359c-1.677-0.034-3.034-0.249-3.03-0.48c0.004-0.233,1.366-0.393,3.043-0.359     C17.079-37.613,18.436-37.398,18.432-37.166z"/>
			<path style="clip-path:url(#SVGID_00000101787412836249330600000003786870193360362932_);fill:#404040;" d="M18.334-37.168     c-0.004,0.225-1.323,0.38-2.946,0.348c-1.623-0.032-2.936-0.241-2.933-0.465c0.004-0.225,1.323-0.38,2.946-0.348     C17.025-37.601,18.338-37.392,18.334-37.168z"/>
			<path style="clip-path:url(#SVGID_00000101787412836249330600000003786870193360362932_);fill:#3E3E3E;" d="M18.237-37.17     c-0.003,0.217-1.278,0.367-2.848,0.336c-1.569-0.031-2.839-0.232-2.835-0.449c0.003-0.217,1.278-0.367,2.848-0.336     C16.971-37.588,18.24-37.387,18.237-37.17z"/>
			<path style="clip-path:url(#SVGID_00000101787412836249330600000003786870193360362932_);fill:#3D3D3D;" d="M18.14-37.172     c-0.003,0.21-1.235,0.354-2.751,0.324c-1.516-0.03-2.742-0.225-2.739-0.434c0.003-0.21,1.235-0.354,2.75-0.324     C16.917-37.576,18.143-37.381,18.14-37.172z"/>
			<path style="clip-path:url(#SVGID_00000101787412836249330600000003786870193360362932_);fill:#3B3B3B;" d="M18.042-37.174     c-0.003,0.202-1.191,0.343-2.653,0.313s-2.644-0.218-2.642-0.419c0.003-0.202,1.191-0.343,2.653-0.313     C16.863-37.564,18.045-37.375,18.042-37.174z"/>
			<path style="clip-path:url(#SVGID_00000101787412836249330600000003786870193360362932_);fill:#393939;" d="M17.945-37.176     c-0.003,0.195-1.147,0.33-2.556,0.302c-1.408-0.028-2.547-0.209-2.544-0.403c0.003-0.195,1.147-0.33,2.556-0.302     C16.809-37.551,17.948-37.371,17.945-37.176z"/>
			<path style="clip-path:url(#SVGID_00000101787412836249330600000003786870193360362932_);fill:#373737;" d="M17.848-37.178     c-0.003,0.188-1.104,0.317-2.458,0.29c-1.354-0.027-2.45-0.201-2.447-0.388c0.003-0.188,1.104-0.317,2.458-0.29     C16.755-37.539,17.851-37.365,17.848-37.178z"/>
			<path style="clip-path:url(#SVGID_00000101787412836249330600000003786870193360362932_);fill:#363636;" d="M17.75-37.18     c-0.003,0.18-1.06,0.305-2.361,0.278c-1.301-0.025-2.353-0.192-2.35-0.372c0.003-0.18,1.06-0.305,2.361-0.278     C16.701-37.527,17.753-37.36,17.75-37.18z"/>
			<path style="clip-path:url(#SVGID_00000101787412836249330600000003786870193360362932_);fill:#343434;" d="M17.653-37.182     c-0.002,0.173-1.016,0.292-2.263,0.267c-1.247-0.024-2.256-0.185-2.253-0.356c0.002-0.173,1.016-0.292,2.263-0.267     C16.647-37.514,17.656-37.354,17.653-37.182z"/>
			<path style="clip-path:url(#SVGID_00000101787412836249330600000003786870193360362932_);fill:#323232;" d="M17.556-37.184     c-0.002,0.165-0.972,0.279-2.165,0.256c-1.193-0.024-2.159-0.178-2.156-0.342c0.002-0.165,0.972-0.279,2.165-0.256     C16.593-37.501,17.559-37.348,17.556-37.184z"/>
			<path style="clip-path:url(#SVGID_00000101787412836249330600000003786870193360362932_);fill:#303030;" d="M17.458-37.186     c-0.002,0.158-0.929,0.267-2.068,0.244c-1.14-0.022-2.062-0.169-2.059-0.326c0.002-0.158,0.929-0.267,2.068-0.244     C16.539-37.49,17.461-37.343,17.458-37.186z"/>
			<path style="clip-path:url(#SVGID_00000101787412836249330600000003786870193360362932_);fill:#2E2E2E;" d="M17.361-37.188     c-0.002,0.15-0.884,0.254-1.97,0.232c-1.086-0.022-1.964-0.161-1.962-0.311c0.002-0.15,0.884-0.254,1.97-0.232     C16.485-37.477,17.363-37.337,17.361-37.188z"/>
			<path style="clip-path:url(#SVGID_00000101787412836249330600000003786870193360362932_);fill:#2C2C2C;" d="M17.264-37.19     c-0.002,0.143-0.841,0.242-1.873,0.221c-1.032-0.02-1.867-0.152-1.865-0.295c0.002-0.143,0.841-0.242,1.873-0.221     C16.431-37.464,17.266-37.333,17.264-37.19z"/>
			<path style="clip-path:url(#SVGID_00000101787412836249330600000003786870193360362932_);fill:#2B2B2B;" d="M17.166-37.192     c-0.002,0.136-0.797,0.229-1.775,0.21c-0.978-0.02-1.769-0.146-1.767-0.28c0.002-0.136,0.797-0.229,1.775-0.21     C16.377-37.453,17.168-37.327,17.166-37.192z"/>
			<path style="clip-path:url(#SVGID_00000101787412836249330600000003786870193360362932_);fill:#292929;" d="M17.069-37.194     c-0.002,0.128-0.753,0.217-1.678,0.198c-0.924-0.019-1.672-0.138-1.67-0.265c0.003-0.128,0.753-0.217,1.678-0.198     C16.323-37.44,17.071-37.321,17.069-37.194z"/>
			<path style="clip-path:url(#SVGID_00000101787412836249330600000003786870193360362932_);fill:#272727;" d="M16.972-37.196     c-0.002,0.121-0.709,0.204-1.58,0.187c-0.871-0.018-1.575-0.129-1.573-0.249c0.002-0.121,0.71-0.204,1.58-0.187     C16.27-37.427,16.974-37.316,16.972-37.196z"/>
		</g>
	</g>
	<g>
		
			<linearGradient id="SVGID_00000096025134025693590480000006657058538096183446_" gradientUnits="userSpaceOnUse" x1="4.2364" y1="-45.7002" x2="30.5894" y2="-45.7002">
			<stop offset="0" style="stop-color:#61BEFF"/>
			<stop offset="1" style="stop-color:#0076F1"/>
		</linearGradient>
		<path style="fill-rule:evenodd;clip-rule:evenodd;fill:url(#SVGID_00000096025134025693590480000006657058538096183446_);" d="    M28.221-53.869c0.56,0.69,1.037,1.453,1.434,2.294c0.627,1.323,0.935,2.731,0.935,4.22c0,1.324-0.253,2.587-0.765,3.775    c-0.505,1.187-1.201,2.226-2.067,3.128c-0.873,0.893-1.884,1.61-3.05,2.129c-1.161,0.526-2.382,0.791-3.665,0.791H5.199    c-0.293,0-0.525-0.08-0.696-0.231c-0.177-0.155-0.266-0.389-0.266-0.709v-14.037C12.602-52.354,21.896-51.39,28.221-53.869    L28.221-53.869z M21.896-47.656c0-0.438-0.089-0.873-0.259-1.31c-0.165-0.438-0.397-0.834-0.696-1.176    c-0.301-0.341-0.662-0.622-1.078-0.839c-0.417-0.219-0.867-0.329-1.351-0.329h-5.794v7.306h5.794c0.483,0,0.927-0.101,1.343-0.307    c0.41-0.205,0.765-0.484,1.071-0.827c0.313-0.34,0.546-0.723,0.711-1.167C21.807-46.742,21.896-47.192,21.896-47.656    L21.896-47.656z"/>
		
			<linearGradient id="SVGID_00000010309797245266830580000002881590471128214168_" gradientUnits="userSpaceOnUse" x1="4.2364" y1="-64.2639" x2="29.1079" y2="-64.2639">
			<stop offset="0" style="stop-color:#C3DB85"/>
			<stop offset="1" style="stop-color:#89BA37"/>
		</linearGradient>
		<path style="fill-rule:evenodd;clip-rule:evenodd;fill:url(#SVGID_00000010309797245266830580000002881590471128214168_);" d="    M4.236-69.02c0-0.307,0.089-0.546,0.252-0.731c0.171-0.177,0.403-0.272,0.71-0.272h14.527c1.282,0,2.49,0.246,3.623,0.73    c1.139,0.492,2.136,1.161,2.989,2.014c0.853,0.854,1.527,1.851,2.026,2.998c0.49,1.14,0.743,2.376,0.743,3.687    c0,0.143-0.008,0.287-0.014,0.423c-2.505,1.004-5.582,1.441-8.932,1.611c0.109-0.17,0.211-0.355,0.3-0.546    c0.164-0.389,0.254-0.812,0.254-1.277c0-0.437-0.084-0.846-0.24-1.222c-0.163-0.382-0.389-0.717-0.682-1.011    c-0.288-0.287-0.649-0.525-1.052-0.689c-0.408-0.171-0.852-0.246-1.337-0.246h-4.688v5.045c-2.832-0.048-5.704-0.136-8.481-0.116    V-69.02z"/>
		
			<radialGradient id="SVGID_00000083050664602544416920000004450816524183453621_" cx="144.5626" cy="195.7914" r="4.4865" fx="143.6608" fy="197.9878" gradientTransform="matrix(-0.2979 -0.906 1.8423 -0.8674 -294.8876 241.0977)" gradientUnits="userSpaceOnUse">
			<stop offset="0.0504" style="stop-color:#272727"/>
			<stop offset="0.2171" style="stop-color:#5E5E5E"/>
			<stop offset="0.4107" style="stop-color:#979797"/>
			<stop offset="0.59" style="stop-color:#C4C4C4"/>
			<stop offset="0.7491" style="stop-color:#E4E4E4"/>
			<stop offset="0.8821" style="stop-color:#F8F8F8"/>
			<stop offset="0.9726" style="stop-color:#FFFFFF"/>
		</radialGradient>
		<path style="opacity:0.92;fill:url(#SVGID_00000083050664602544416920000004450816524183453621_);" d="M21.321-64.725    c4.583-2.157,8.99-1.973,9.795,0.421c0.824,2.399-2.28,6.114-6.851,8.263c-4.65,2.193-9.067,2.02-9.86-0.393    C13.583-58.829,16.692-62.545,21.321-64.725z"/>
		
			<radialGradient id="SVGID_00000136380163688307346180000000558216879259835267_" cx="142.9367" cy="187.8756" r="4.4866" fx="142.0349" fy="190.0721" gradientTransform="matrix(-0.2979 -0.906 1.8423 -0.8674 -294.8876 241.0977)" gradientUnits="userSpaceOnUse">
			<stop offset="0.0504" style="stop-color:#272727"/>
			<stop offset="0.2171" style="stop-color:#5E5E5E"/>
			<stop offset="0.4107" style="stop-color:#979797"/>
			<stop offset="0.59" style="stop-color:#C4C4C4"/>
			<stop offset="0.7491" style="stop-color:#E4E4E4"/>
			<stop offset="0.8821" style="stop-color:#F8F8F8"/>
			<stop offset="0.9726" style="stop-color:#FFFFFF"/>
		</radialGradient>
		<path style="opacity:0.92;fill:url(#SVGID_00000136380163688307346180000000558216879259835267_);" d="M7.221-56.385    c4.584-2.157,8.991-1.973,9.796,0.421c0.823,2.398-2.281,6.113-6.851,8.263c-4.651,2.192-9.068,2.021-9.86-0.393    C-0.516-50.49,2.593-54.207,7.221-56.385z"/>
		
			<linearGradient id="SVGID_00000029004137281858546560000000601882291952690053_" gradientUnits="userSpaceOnUse" x1="29.5471" y1="-63.7743" x2="3.0828" y2="-49.7212">
			<stop offset="0" style="stop-color:#61BEFF"/>
			<stop offset="1" style="stop-color:#0076F1"/>
		</linearGradient>
		<path style="fill-rule:evenodd;clip-rule:evenodd;fill:url(#SVGID_00000029004137281858546560000000601882291952690053_);" d="    M4.236-57.536c13.558-1.59,29.845-0.73,28.611-14.003c4.722,19.718-13.838,18.457-28.611,19.868V-57.536z"/>
	</g>
</g>
</svg>
